<svg width="180" height="180" viewBox="0 0 180 180" fill="none" xmlns="http://www.w3.org/2000/svg">
<rect width="180" height="180" fill="#061B3A"/>
<path d="M88.3278 98.4526L46.2616 122.801L40.0811 116.621L76.9579 91.8418L88.3278 98.4526Z" fill="url(#paint0_linear_1905_9950)"/>
<path d="M89.2787 100.099L47.1588 124.356L49.421 132.798L89.3188 113.252L89.2787 100.099Z" fill="url(#paint1_linear_1905_9950)"/>
<path d="M90.9508 100.099L133.071 124.355L130.808 132.798L90.9107 113.251L90.9508 100.099Z" fill="url(#paint2_linear_1905_9950)"/>
<path d="M91.9017 98.4525L133.968 122.801L140.148 116.621L103.272 91.8417L91.9017 98.4525Z" fill="url(#paint3_linear_1905_9950)"/>
<path d="M90.9509 96.6532L90.8974 48.0484L99.34 45.7861L102.361 90.112L90.9509 96.6532Z" fill="url(#paint4_linear_1905_9950)"/>
<path d="M89.0492 96.6532L89.1028 48.0484L80.6601 45.7861L77.6392 90.112L89.0492 96.6532Z" fill="url(#paint5_linear_1905_9950)"/>
<path d="M88.3278 98.4526L46.2616 122.801L40.0811 116.621L76.9579 91.8418L88.3278 98.4526Z" stroke="url(#paint6_linear_1905_9950)"/>
<path d="M89.2787 100.099L47.1588 124.356L49.421 132.798L89.3188 113.252L89.2787 100.099Z" stroke="url(#paint7_linear_1905_9950)"/>
<path d="M90.9508 100.099L133.071 124.355L130.808 132.798L90.9107 113.251L90.9508 100.099Z" stroke="url(#paint8_linear_1905_9950)"/>
<path d="M91.9017 98.4525L133.968 122.801L140.148 116.621L103.272 91.8417L91.9017 98.4525Z" stroke="url(#paint9_linear_1905_9950)"/>
<path d="M90.9509 96.6532L90.8974 48.0484L99.34 45.7861L102.361 90.112L90.9509 96.6532Z" stroke="url(#paint10_linear_1905_9950)"/>
<path d="M89.0492 96.6532L89.1028 48.0484L80.6601 45.7861L77.6392 90.112L89.0492 96.6532Z" stroke="url(#paint11_linear_1905_9950)"/>
<defs>
<linearGradient id="paint0_linear_1905_9950" x1="90.1147" y1="45.7861" x2="90.1147" y2="132.798" gradientUnits="userSpaceOnUse">
<stop stop-color="#33E6BF"/>
<stop offset="1" stop-color="#0439C7"/>
</linearGradient>
<linearGradient id="paint1_linear_1905_9950" x1="90.1147" y1="45.7861" x2="90.1147" y2="132.798" gradientUnits="userSpaceOnUse">
<stop stop-color="#33E6BF"/>
<stop offset="1" stop-color="#0439C7"/>
</linearGradient>
<linearGradient id="paint2_linear_1905_9950" x1="90.1147" y1="45.7861" x2="90.1147" y2="132.798" gradientUnits="userSpaceOnUse">
<stop stop-color="#33E6BF"/>
<stop offset="1" stop-color="#0439C7"/>
</linearGradient>
<linearGradient id="paint3_linear_1905_9950" x1="90.1147" y1="45.7861" x2="90.1147" y2="132.798" gradientUnits="userSpaceOnUse">
<stop stop-color="#33E6BF"/>
<stop offset="1" stop-color="#0439C7"/>
</linearGradient>
<linearGradient id="paint4_linear_1905_9950" x1="90.1147" y1="45.7861" x2="90.1147" y2="132.798" gradientUnits="userSpaceOnUse">
<stop stop-color="#33E6BF"/>
<stop offset="1" stop-color="#0439C7"/>
</linearGradient>
<linearGradient id="paint5_linear_1905_9950" x1="90.1147" y1="45.7861" x2="90.1147" y2="132.798" gradientUnits="userSpaceOnUse">
<stop stop-color="#33E6BF"/>
<stop offset="1" stop-color="#0439C7"/>
</linearGradient>
<linearGradient id="paint6_linear_1905_9950" x1="90.1147" y1="45.7861" x2="90.1147" y2="132.798" gradientUnits="userSpaceOnUse">
<stop stop-color="#33E6BF"/>
<stop offset="1" stop-color="#0439C7"/>
</linearGradient>
<linearGradient id="paint7_linear_1905_9950" x1="90.1147" y1="45.7861" x2="90.1147" y2="132.798" gradientUnits="userSpaceOnUse">
<stop stop-color="#33E6BF"/>
<stop offset="1" stop-color="#0439C7"/>
</linearGradient>
<linearGradient id="paint8_linear_1905_9950" x1="90.1147" y1="45.7861" x2="90.1147" y2="132.798" gradientUnits="userSpaceOnUse">
<stop stop-color="#33E6BF"/>
<stop offset="1" stop-color="#0439C7"/>
</linearGradient>
<linearGradient id="paint9_linear_1905_9950" x1="90.1147" y1="45.7861" x2="90.1147" y2="132.798" gradientUnits="userSpaceOnUse">
<stop stop-color="#33E6BF"/>
<stop offset="1" stop-color="#0439C7"/>
</linearGradient>
<linearGradient id="paint10_linear_1905_9950" x1="90.1147" y1="45.7861" x2="90.1147" y2="132.798" gradientUnits="userSpaceOnUse">
<stop stop-color="#33E6BF"/>
<stop offset="1" stop-color="#0439C7"/>
</linearGradient>
<linearGradient id="paint11_linear_1905_9950" x1="90.1147" y1="45.7861" x2="90.1147" y2="132.798" gradientUnits="userSpaceOnUse">
<stop stop-color="#33E6BF"/>
<stop offset="1" stop-color="#0439C7"/>
</linearGradient>
</defs>
</svg>
