<svg width="32" height="32" viewBox="0 0 32 32" fill="none" xmlns="http://www.w3.org/2000/svg">
<rect width="32" height="32" fill="#061B3A"/>
<path d="M15.7027 17.5026L8.22424 21.8312L7.12549 20.7325L13.6814 16.3273L15.7027 17.5026Z" fill="url(#paint0_linear_1905_9982)"/>
<path d="M15.8717 17.7954L8.38376 22.1075L8.78592 23.6085L15.8789 20.1335L15.8717 17.7954Z" fill="url(#paint1_linear_1905_9982)"/>
<path d="M16.169 17.7953L23.657 22.1075L23.2548 23.6085L16.1619 20.1335L16.169 17.7953Z" fill="url(#paint2_linear_1905_9982)"/>
<path d="M16.338 17.5026L23.8165 21.8312L24.9152 20.7325L18.3594 16.3273L16.338 17.5026Z" fill="url(#paint3_linear_1905_9982)"/>
<path d="M16.169 17.1827L16.1595 8.54183L17.6604 8.13965L18.1975 16.0198L16.169 17.1827Z" fill="url(#paint4_linear_1905_9982)"/>
<path d="M15.8309 17.1827L15.8405 8.54183L14.3395 8.13965L13.8025 16.0198L15.8309 17.1827Z" fill="url(#paint5_linear_1905_9982)"/>
<path d="M15.7027 17.5026L8.22424 21.8312L7.12549 20.7325L13.6814 16.3273L15.7027 17.5026Z" stroke="url(#paint6_linear_1905_9982)"/>
<path d="M15.8717 17.7954L8.38376 22.1075L8.78592 23.6085L15.8789 20.1335L15.8717 17.7954Z" stroke="url(#paint7_linear_1905_9982)"/>
<path d="M16.169 17.7953L23.657 22.1075L23.2548 23.6085L16.1619 20.1335L16.169 17.7953Z" stroke="url(#paint8_linear_1905_9982)"/>
<path d="M16.338 17.5026L23.8165 21.8312L24.9152 20.7325L18.3594 16.3273L16.338 17.5026Z" stroke="url(#paint9_linear_1905_9982)"/>
<path d="M16.169 17.1827L16.1595 8.54183L17.6604 8.13965L18.1975 16.0198L16.169 17.1827Z" stroke="url(#paint10_linear_1905_9982)"/>
<path d="M15.8309 17.1827L15.8405 8.54183L14.3395 8.13965L13.8025 16.0198L15.8309 17.1827Z" stroke="url(#paint11_linear_1905_9982)"/>
<defs>
<linearGradient id="paint0_linear_1905_9982" x1="16.0204" y1="8.13965" x2="16.0204" y2="23.6085" gradientUnits="userSpaceOnUse">
<stop stop-color="#33E6BF"/>
<stop offset="1" stop-color="#0439C7"/>
</linearGradient>
<linearGradient id="paint1_linear_1905_9982" x1="16.0204" y1="8.13965" x2="16.0204" y2="23.6085" gradientUnits="userSpaceOnUse">
<stop stop-color="#33E6BF"/>
<stop offset="1" stop-color="#0439C7"/>
</linearGradient>
<linearGradient id="paint2_linear_1905_9982" x1="16.0204" y1="8.13965" x2="16.0204" y2="23.6085" gradientUnits="userSpaceOnUse">
<stop stop-color="#33E6BF"/>
<stop offset="1" stop-color="#0439C7"/>
</linearGradient>
<linearGradient id="paint3_linear_1905_9982" x1="16.0204" y1="8.13965" x2="16.0204" y2="23.6085" gradientUnits="userSpaceOnUse">
<stop stop-color="#33E6BF"/>
<stop offset="1" stop-color="#0439C7"/>
</linearGradient>
<linearGradient id="paint4_linear_1905_9982" x1="16.0204" y1="8.13965" x2="16.0204" y2="23.6085" gradientUnits="userSpaceOnUse">
<stop stop-color="#33E6BF"/>
<stop offset="1" stop-color="#0439C7"/>
</linearGradient>
<linearGradient id="paint5_linear_1905_9982" x1="16.0204" y1="8.13965" x2="16.0204" y2="23.6085" gradientUnits="userSpaceOnUse">
<stop stop-color="#33E6BF"/>
<stop offset="1" stop-color="#0439C7"/>
</linearGradient>
<linearGradient id="paint6_linear_1905_9982" x1="16.0204" y1="8.13965" x2="16.0204" y2="23.6085" gradientUnits="userSpaceOnUse">
<stop stop-color="#33E6BF"/>
<stop offset="1" stop-color="#0439C7"/>
</linearGradient>
<linearGradient id="paint7_linear_1905_9982" x1="16.0204" y1="8.13965" x2="16.0204" y2="23.6085" gradientUnits="userSpaceOnUse">
<stop stop-color="#33E6BF"/>
<stop offset="1" stop-color="#0439C7"/>
</linearGradient>
<linearGradient id="paint8_linear_1905_9982" x1="16.0204" y1="8.13965" x2="16.0204" y2="23.6085" gradientUnits="userSpaceOnUse">
<stop stop-color="#33E6BF"/>
<stop offset="1" stop-color="#0439C7"/>
</linearGradient>
<linearGradient id="paint9_linear_1905_9982" x1="16.0204" y1="8.13965" x2="16.0204" y2="23.6085" gradientUnits="userSpaceOnUse">
<stop stop-color="#33E6BF"/>
<stop offset="1" stop-color="#0439C7"/>
</linearGradient>
<linearGradient id="paint10_linear_1905_9982" x1="16.0204" y1="8.13965" x2="16.0204" y2="23.6085" gradientUnits="userSpaceOnUse">
<stop stop-color="#33E6BF"/>
<stop offset="1" stop-color="#0439C7"/>
</linearGradient>
<linearGradient id="paint11_linear_1905_9982" x1="16.0204" y1="8.13965" x2="16.0204" y2="23.6085" gradientUnits="userSpaceOnUse">
<stop stop-color="#33E6BF"/>
<stop offset="1" stop-color="#0439C7"/>
</linearGradient>
</defs>
</svg>
