<svg width="1728" height="1117" viewBox="0 0 1728 1117" fill="none" xmlns="http://www.w3.org/2000/svg">
<rect width="1728" height="1117" fill="white"/>
<path d="M559.968 573.824L483.705 617.967L472.5 606.762L539.355 561.839L559.968 573.824Z" fill="url(#paint0_linear_952_6271)"/>
<path d="M561.692 576.809L485.332 620.784L489.433 636.09L561.765 600.653L561.692 576.809Z" fill="url(#paint1_linear_952_6271)"/>
<path d="M564.724 576.809L641.084 620.784L636.983 636.09L564.651 600.653L564.724 576.809Z" fill="url(#paint2_linear_952_6271)"/>
<path d="M566.447 573.824L642.711 617.966L653.916 606.762L587.06 561.839L566.447 573.824Z" fill="url(#paint3_linear_952_6271)"/>
<path d="M564.724 570.562L564.627 482.444L579.933 478.343L585.41 558.703L564.724 570.562Z" fill="url(#paint4_linear_952_6271)"/>
<path d="M561.276 570.562L561.373 482.444L546.067 478.343L540.59 558.703L561.276 570.562Z" fill="url(#paint5_linear_952_6271)"/>
<path d="M559.968 573.824L483.705 617.967L472.5 606.762L539.355 561.839L559.968 573.824Z" stroke="url(#paint6_linear_952_6271)"/>
<path d="M561.692 576.809L485.332 620.784L489.433 636.09L561.765 600.653L561.692 576.809Z" stroke="url(#paint7_linear_952_6271)"/>
<path d="M564.724 576.809L641.084 620.784L636.983 636.09L564.651 600.653L564.724 576.809Z" stroke="url(#paint8_linear_952_6271)"/>
<path d="M566.447 573.824L642.711 617.966L653.916 606.762L587.06 561.839L566.447 573.824Z" stroke="url(#paint9_linear_952_6271)"/>
<path d="M564.724 570.562L564.627 482.444L579.933 478.343L585.41 558.703L564.724 570.562Z" stroke="url(#paint10_linear_952_6271)"/>
<path d="M561.276 570.562L561.373 482.444L546.067 478.343L540.59 558.703L561.276 570.562Z" stroke="url(#paint11_linear_952_6271)"/>
<path d="M738.65 611L692.75 506H713.9L754.85 600.95H742.7L784.1 506H803.6L757.85 611H738.65ZM840.843 612.05C834.043 612.05 828.043 610.8 822.843 608.3C817.643 605.7 813.593 601.8 810.693 596.6C807.793 591.3 806.343 584.65 806.343 576.65V530.9H825.093V574.1C825.093 581.3 826.693 586.7 829.893 590.3C833.193 593.8 837.843 595.55 843.843 595.55C848.243 595.55 852.043 594.65 855.243 592.85C858.543 591.05 861.093 588.35 862.893 584.75C864.793 581.15 865.743 576.7 865.743 571.4V530.9H884.493V611H866.643V589.4L869.793 596C867.093 601.2 863.143 605.2 857.943 608C852.743 610.7 847.043 612.05 840.843 612.05ZM905.743 611V499.7H924.493V611H905.743ZM979.907 612.05C971.107 612.05 964.307 609.8 959.507 605.3C954.707 600.7 952.307 593.95 952.307 585.05V513.2H971.057V584.6C971.057 588.4 972.007 591.35 973.907 593.45C975.907 595.55 978.657 596.6 982.157 596.6C986.357 596.6 989.857 595.5 992.657 593.3L997.907 606.65C995.707 608.45 993.007 609.8 989.807 610.7C986.607 611.6 983.307 612.05 979.907 612.05ZM939.107 546.5V531.5H992.507V546.5H939.107ZM1010.03 611V530.9H1028.78V611H1010.03ZM1019.48 517.7C1015.98 517.7 1013.08 516.6 1010.78 514.4C1008.58 512.2 1007.48 509.55 1007.48 506.45C1007.48 503.25 1008.58 500.6 1010.78 498.5C1013.08 496.3 1015.98 495.2 1019.48 495.2C1022.98 495.2 1025.83 496.25 1028.03 498.35C1030.33 500.35 1031.48 502.9 1031.48 506C1031.48 509.3 1030.38 512.1 1028.18 514.4C1025.98 516.6 1023.08 517.7 1019.48 517.7ZM1074.84 612.05C1068.14 612.05 1061.69 611.2 1055.49 609.5C1049.39 607.7 1044.54 605.55 1040.94 603.05L1048.14 588.8C1051.74 591.1 1056.04 593 1061.04 594.5C1066.04 596 1071.04 596.75 1076.04 596.75C1081.94 596.75 1086.19 595.95 1088.79 594.35C1091.49 592.75 1092.84 590.6 1092.84 587.9C1092.84 585.7 1091.94 584.05 1090.14 582.95C1088.34 581.75 1085.99 580.85 1083.09 580.25C1080.19 579.65 1076.94 579.1 1073.34 578.6C1069.84 578.1 1066.29 577.45 1062.69 576.65C1059.19 575.75 1055.99 574.5 1053.09 572.9C1050.19 571.2 1047.84 568.95 1046.04 566.15C1044.24 563.35 1043.34 559.65 1043.34 555.05C1043.34 549.95 1044.79 545.55 1047.69 541.85C1050.59 538.05 1054.64 535.15 1059.84 533.15C1065.14 531.05 1071.39 530 1078.59 530C1083.99 530 1089.44 530.6 1094.94 531.8C1100.44 533 1104.99 534.7 1108.59 536.9L1101.39 551.15C1097.59 548.85 1093.74 547.3 1089.84 546.5C1086.04 545.6 1082.24 545.15 1078.44 545.15C1072.74 545.15 1068.49 546 1065.69 547.7C1062.99 549.4 1061.64 551.55 1061.64 554.15C1061.64 556.55 1062.54 558.35 1064.34 559.55C1066.14 560.75 1068.49 561.7 1071.39 562.4C1074.29 563.1 1077.49 563.7 1080.99 564.2C1084.59 564.6 1088.14 565.25 1091.64 566.15C1095.14 567.05 1098.34 568.3 1101.24 569.9C1104.24 571.4 1106.64 573.55 1108.44 576.35C1110.24 579.15 1111.14 582.8 1111.14 587.3C1111.14 592.3 1109.64 596.65 1106.64 600.35C1103.74 604.05 1099.59 606.95 1094.19 609.05C1088.79 611.05 1082.34 612.05 1074.84 612.05ZM1123.99 611V530.9H1142.74V611H1123.99ZM1133.44 517.7C1129.94 517.7 1127.04 516.6 1124.74 514.4C1122.54 512.2 1121.44 509.55 1121.44 506.45C1121.44 503.25 1122.54 500.6 1124.74 498.5C1127.04 496.3 1129.94 495.2 1133.44 495.2C1136.94 495.2 1139.79 496.25 1141.99 498.35C1144.29 500.35 1145.44 502.9 1145.44 506C1145.44 509.3 1144.34 512.1 1142.14 514.4C1139.94 516.6 1137.04 517.7 1133.44 517.7ZM1200.35 641.15C1192.95 641.15 1185.7 640.15 1178.6 638.15C1171.6 636.25 1165.85 633.45 1161.35 629.75L1169.75 615.65C1173.25 618.55 1177.65 620.85 1182.95 622.55C1188.35 624.35 1193.8 625.25 1199.3 625.25C1208.1 625.25 1214.55 623.2 1218.65 619.1C1222.75 615.1 1224.8 609.05 1224.8 600.95V586.7L1226.3 568.55L1225.7 550.4V530.9H1243.55V598.85C1243.55 613.35 1239.85 624 1232.45 630.8C1225.05 637.7 1214.35 641.15 1200.35 641.15ZM1197.95 607.4C1190.35 607.4 1183.45 605.8 1177.25 602.6C1171.15 599.3 1166.3 594.75 1162.7 588.95C1159.2 583.15 1157.45 576.35 1157.45 568.55C1157.45 560.85 1159.2 554.1 1162.7 548.3C1166.3 542.5 1171.15 538 1177.25 534.8C1183.45 531.6 1190.35 530 1197.95 530C1204.75 530 1210.85 531.35 1216.25 534.05C1221.65 536.75 1225.95 540.95 1229.15 546.65C1232.45 552.35 1234.1 559.65 1234.1 568.55C1234.1 577.45 1232.45 584.8 1229.15 590.6C1225.95 596.3 1221.65 600.55 1216.25 603.35C1210.85 606.05 1204.75 607.4 1197.95 607.4ZM1200.8 591.5C1205.5 591.5 1209.7 590.55 1213.4 588.65C1217.1 586.65 1219.95 583.95 1221.95 580.55C1224.05 577.05 1225.1 573.05 1225.1 568.55C1225.1 564.05 1224.05 560.1 1221.95 556.7C1219.95 553.2 1217.1 550.55 1213.4 548.75C1209.7 546.85 1205.5 545.9 1200.8 545.9C1196.1 545.9 1191.85 546.85 1188.05 548.75C1184.35 550.55 1181.45 553.2 1179.35 556.7C1177.35 560.1 1176.35 564.05 1176.35 568.55C1176.35 573.05 1177.35 577.05 1179.35 580.55C1181.45 583.95 1184.35 586.65 1188.05 588.65C1191.85 590.55 1196.1 591.5 1200.8 591.5Z" fill="#061B3A"/>
<defs>
<linearGradient id="paint0_linear_952_6271" x1="563.208" y1="478.343" x2="563.208" y2="636.09" gradientUnits="userSpaceOnUse">
<stop stop-color="#33E6BF"/>
<stop offset="1" stop-color="#0439C7"/>
</linearGradient>
<linearGradient id="paint1_linear_952_6271" x1="563.208" y1="478.343" x2="563.208" y2="636.09" gradientUnits="userSpaceOnUse">
<stop stop-color="#33E6BF"/>
<stop offset="1" stop-color="#0439C7"/>
</linearGradient>
<linearGradient id="paint2_linear_952_6271" x1="563.208" y1="478.343" x2="563.208" y2="636.09" gradientUnits="userSpaceOnUse">
<stop stop-color="#33E6BF"/>
<stop offset="1" stop-color="#0439C7"/>
</linearGradient>
<linearGradient id="paint3_linear_952_6271" x1="563.208" y1="478.343" x2="563.208" y2="636.09" gradientUnits="userSpaceOnUse">
<stop stop-color="#33E6BF"/>
<stop offset="1" stop-color="#0439C7"/>
</linearGradient>
<linearGradient id="paint4_linear_952_6271" x1="563.208" y1="478.343" x2="563.208" y2="636.09" gradientUnits="userSpaceOnUse">
<stop stop-color="#33E6BF"/>
<stop offset="1" stop-color="#0439C7"/>
</linearGradient>
<linearGradient id="paint5_linear_952_6271" x1="563.208" y1="478.343" x2="563.208" y2="636.09" gradientUnits="userSpaceOnUse">
<stop stop-color="#33E6BF"/>
<stop offset="1" stop-color="#0439C7"/>
</linearGradient>
<linearGradient id="paint6_linear_952_6271" x1="563.208" y1="478.343" x2="563.208" y2="636.09" gradientUnits="userSpaceOnUse">
<stop stop-color="#33E6BF"/>
<stop offset="1" stop-color="#0439C7"/>
</linearGradient>
<linearGradient id="paint7_linear_952_6271" x1="563.208" y1="478.343" x2="563.208" y2="636.09" gradientUnits="userSpaceOnUse">
<stop stop-color="#33E6BF"/>
<stop offset="1" stop-color="#0439C7"/>
</linearGradient>
<linearGradient id="paint8_linear_952_6271" x1="563.208" y1="478.343" x2="563.208" y2="636.09" gradientUnits="userSpaceOnUse">
<stop stop-color="#33E6BF"/>
<stop offset="1" stop-color="#0439C7"/>
</linearGradient>
<linearGradient id="paint9_linear_952_6271" x1="563.208" y1="478.343" x2="563.208" y2="636.09" gradientUnits="userSpaceOnUse">
<stop stop-color="#33E6BF"/>
<stop offset="1" stop-color="#0439C7"/>
</linearGradient>
<linearGradient id="paint10_linear_952_6271" x1="563.208" y1="478.343" x2="563.208" y2="636.09" gradientUnits="userSpaceOnUse">
<stop stop-color="#33E6BF"/>
<stop offset="1" stop-color="#0439C7"/>
</linearGradient>
<linearGradient id="paint11_linear_952_6271" x1="563.208" y1="478.343" x2="563.208" y2="636.09" gradientUnits="userSpaceOnUse">
<stop stop-color="#33E6BF"/>
<stop offset="1" stop-color="#0439C7"/>
</linearGradient>
</defs>
</svg>
