<svg width="180" height="180" viewBox="0 0 180 180" fill="none" xmlns="http://www.w3.org/2000/svg">
<rect width="180" height="180" rx="90" fill="#061B3A"/>
<path d="M88.3278 98.4521L46.2616 122.801L40.0811 116.62L76.9579 91.8413L88.3278 98.4521Z" fill="url(#paint0_linear_6897_20007)"/>
<path d="M89.2787 100.099L47.1588 124.355L49.421 132.798L89.3188 113.251L89.2787 100.099Z" fill="url(#paint1_linear_6897_20007)"/>
<path d="M90.9508 100.099L133.071 124.355L130.808 132.798L90.9107 113.251L90.9508 100.099Z" fill="url(#paint2_linear_6897_20007)"/>
<path d="M91.9017 98.452L133.968 122.801L140.148 116.62L103.272 91.8413L91.9017 98.452Z" fill="url(#paint3_linear_6897_20007)"/>
<path d="M90.9509 96.6528L90.8974 48.0479L99.34 45.7856L102.361 90.1115L90.9509 96.6528Z" fill="url(#paint4_linear_6897_20007)"/>
<path d="M89.0492 96.6528L89.1028 48.0479L80.6601 45.7856L77.6392 90.1115L89.0492 96.6528Z" fill="url(#paint5_linear_6897_20007)"/>
<path d="M88.3278 98.4521L46.2616 122.801L40.0811 116.62L76.9579 91.8413L88.3278 98.4521Z" stroke="url(#paint6_linear_6897_20007)" stroke-width="0.175781"/>
<path d="M89.2787 100.099L47.1588 124.355L49.421 132.798L89.3188 113.251L89.2787 100.099Z" stroke="url(#paint7_linear_6897_20007)" stroke-width="0.175781"/>
<path d="M90.9508 100.099L133.071 124.355L130.808 132.798L90.9107 113.251L90.9508 100.099Z" stroke="url(#paint8_linear_6897_20007)" stroke-width="0.175781"/>
<path d="M91.9017 98.452L133.968 122.801L140.148 116.62L103.272 91.8413L91.9017 98.452Z" stroke="url(#paint9_linear_6897_20007)" stroke-width="0.175781"/>
<path d="M90.9509 96.6528L90.8974 48.0479L99.34 45.7856L102.361 90.1115L90.9509 96.6528Z" stroke="url(#paint10_linear_6897_20007)" stroke-width="0.175781"/>
<path d="M89.0492 96.6528L89.1028 48.0479L80.6601 45.7856L77.6392 90.1115L89.0492 96.6528Z" stroke="url(#paint11_linear_6897_20007)" stroke-width="0.175781"/>
<defs>
<linearGradient id="paint0_linear_6897_20007" x1="90.1147" y1="45.7856" x2="90.1147" y2="132.798" gradientUnits="userSpaceOnUse">
<stop stop-color="#33E6BF"/>
<stop offset="1" stop-color="#0439C7"/>
</linearGradient>
<linearGradient id="paint1_linear_6897_20007" x1="90.1147" y1="45.7856" x2="90.1147" y2="132.798" gradientUnits="userSpaceOnUse">
<stop stop-color="#33E6BF"/>
<stop offset="1" stop-color="#0439C7"/>
</linearGradient>
<linearGradient id="paint2_linear_6897_20007" x1="90.1147" y1="45.7856" x2="90.1147" y2="132.798" gradientUnits="userSpaceOnUse">
<stop stop-color="#33E6BF"/>
<stop offset="1" stop-color="#0439C7"/>
</linearGradient>
<linearGradient id="paint3_linear_6897_20007" x1="90.1147" y1="45.7856" x2="90.1147" y2="132.798" gradientUnits="userSpaceOnUse">
<stop stop-color="#33E6BF"/>
<stop offset="1" stop-color="#0439C7"/>
</linearGradient>
<linearGradient id="paint4_linear_6897_20007" x1="90.1147" y1="45.7856" x2="90.1147" y2="132.798" gradientUnits="userSpaceOnUse">
<stop stop-color="#33E6BF"/>
<stop offset="1" stop-color="#0439C7"/>
</linearGradient>
<linearGradient id="paint5_linear_6897_20007" x1="90.1147" y1="45.7856" x2="90.1147" y2="132.798" gradientUnits="userSpaceOnUse">
<stop stop-color="#33E6BF"/>
<stop offset="1" stop-color="#0439C7"/>
</linearGradient>
<linearGradient id="paint6_linear_6897_20007" x1="90.1147" y1="45.7856" x2="90.1147" y2="132.798" gradientUnits="userSpaceOnUse">
<stop stop-color="#33E6BF"/>
<stop offset="1" stop-color="#0439C7"/>
</linearGradient>
<linearGradient id="paint7_linear_6897_20007" x1="90.1147" y1="45.7856" x2="90.1147" y2="132.798" gradientUnits="userSpaceOnUse">
<stop stop-color="#33E6BF"/>
<stop offset="1" stop-color="#0439C7"/>
</linearGradient>
<linearGradient id="paint8_linear_6897_20007" x1="90.1147" y1="45.7856" x2="90.1147" y2="132.798" gradientUnits="userSpaceOnUse">
<stop stop-color="#33E6BF"/>
<stop offset="1" stop-color="#0439C7"/>
</linearGradient>
<linearGradient id="paint9_linear_6897_20007" x1="90.1147" y1="45.7856" x2="90.1147" y2="132.798" gradientUnits="userSpaceOnUse">
<stop stop-color="#33E6BF"/>
<stop offset="1" stop-color="#0439C7"/>
</linearGradient>
<linearGradient id="paint10_linear_6897_20007" x1="90.1147" y1="45.7856" x2="90.1147" y2="132.798" gradientUnits="userSpaceOnUse">
<stop stop-color="#33E6BF"/>
<stop offset="1" stop-color="#0439C7"/>
</linearGradient>
<linearGradient id="paint11_linear_6897_20007" x1="90.1147" y1="45.7856" x2="90.1147" y2="132.798" gradientUnits="userSpaceOnUse">
<stop stop-color="#33E6BF"/>
<stop offset="1" stop-color="#0439C7"/>
</linearGradient>
</defs>
</svg>
