<svg width="120" height="120" viewBox="0 0 120 120" fill="none" xmlns="http://www.w3.org/2000/svg">
<rect width="120" height="120" rx="30.4687" fill="#061B3A"/>
<path d="M58.8852 65.6349L30.841 81.8674L26.7207 77.7471L51.3053 61.2277L58.8852 65.6349Z" fill="url(#paint0_linear_6897_19980)"/>
<path d="M59.5191 66.7328L31.4392 82.9035L32.9473 88.532L59.5459 75.5008L59.5191 66.7328Z" fill="url(#paint1_linear_6897_19980)"/>
<path d="M60.6339 66.7328L88.7138 82.9035L87.2057 88.5319L60.6071 75.5008L60.6339 66.7328Z" fill="url(#paint2_linear_6897_19980)"/>
<path d="M61.2678 65.6349L89.312 81.8674L93.4323 77.7471L68.8477 61.2277L61.2678 65.6349Z" fill="url(#paint3_linear_6897_19980)"/>
<path d="M60.6339 64.4353L60.5982 32.0321L66.2267 30.5239L68.2407 60.0745L60.6339 64.4353Z" fill="url(#paint4_linear_6897_19980)"/>
<path d="M59.3662 64.4353L59.4019 32.0321L53.7734 30.5239L51.7595 60.0745L59.3662 64.4353Z" fill="url(#paint5_linear_6897_19980)"/>
<path d="M58.8852 65.6349L30.841 81.8674L26.7207 77.7471L51.3053 61.2277L58.8852 65.6349Z" stroke="url(#paint6_linear_6897_19980)" stroke-width="0.117188"/>
<path d="M59.5191 66.7328L31.4392 82.9035L32.9473 88.532L59.5459 75.5008L59.5191 66.7328Z" stroke="url(#paint7_linear_6897_19980)" stroke-width="0.117188"/>
<path d="M60.6339 66.7328L88.7138 82.9035L87.2057 88.5319L60.6071 75.5008L60.6339 66.7328Z" stroke="url(#paint8_linear_6897_19980)" stroke-width="0.117188"/>
<path d="M61.2678 65.6349L89.312 81.8674L93.4323 77.7471L68.8477 61.2277L61.2678 65.6349Z" stroke="url(#paint9_linear_6897_19980)" stroke-width="0.117188"/>
<path d="M60.6339 64.4353L60.5982 32.0321L66.2267 30.5239L68.2407 60.0745L60.6339 64.4353Z" stroke="url(#paint10_linear_6897_19980)" stroke-width="0.117188"/>
<path d="M59.3662 64.4353L59.4019 32.0321L53.7734 30.5239L51.7595 60.0745L59.3662 64.4353Z" stroke="url(#paint11_linear_6897_19980)" stroke-width="0.117188"/>
<defs>
<linearGradient id="paint0_linear_6897_19980" x1="60.0765" y1="30.5239" x2="60.0765" y2="88.532" gradientUnits="userSpaceOnUse">
<stop stop-color="#33E6BF"/>
<stop offset="1" stop-color="#0439C7"/>
</linearGradient>
<linearGradient id="paint1_linear_6897_19980" x1="60.0765" y1="30.5239" x2="60.0765" y2="88.532" gradientUnits="userSpaceOnUse">
<stop stop-color="#33E6BF"/>
<stop offset="1" stop-color="#0439C7"/>
</linearGradient>
<linearGradient id="paint2_linear_6897_19980" x1="60.0765" y1="30.5239" x2="60.0765" y2="88.532" gradientUnits="userSpaceOnUse">
<stop stop-color="#33E6BF"/>
<stop offset="1" stop-color="#0439C7"/>
</linearGradient>
<linearGradient id="paint3_linear_6897_19980" x1="60.0765" y1="30.5239" x2="60.0765" y2="88.532" gradientUnits="userSpaceOnUse">
<stop stop-color="#33E6BF"/>
<stop offset="1" stop-color="#0439C7"/>
</linearGradient>
<linearGradient id="paint4_linear_6897_19980" x1="60.0765" y1="30.5239" x2="60.0765" y2="88.532" gradientUnits="userSpaceOnUse">
<stop stop-color="#33E6BF"/>
<stop offset="1" stop-color="#0439C7"/>
</linearGradient>
<linearGradient id="paint5_linear_6897_19980" x1="60.0765" y1="30.5239" x2="60.0765" y2="88.532" gradientUnits="userSpaceOnUse">
<stop stop-color="#33E6BF"/>
<stop offset="1" stop-color="#0439C7"/>
</linearGradient>
<linearGradient id="paint6_linear_6897_19980" x1="60.0765" y1="30.5239" x2="60.0765" y2="88.532" gradientUnits="userSpaceOnUse">
<stop stop-color="#33E6BF"/>
<stop offset="1" stop-color="#0439C7"/>
</linearGradient>
<linearGradient id="paint7_linear_6897_19980" x1="60.0765" y1="30.5239" x2="60.0765" y2="88.532" gradientUnits="userSpaceOnUse">
<stop stop-color="#33E6BF"/>
<stop offset="1" stop-color="#0439C7"/>
</linearGradient>
<linearGradient id="paint8_linear_6897_19980" x1="60.0765" y1="30.5239" x2="60.0765" y2="88.532" gradientUnits="userSpaceOnUse">
<stop stop-color="#33E6BF"/>
<stop offset="1" stop-color="#0439C7"/>
</linearGradient>
<linearGradient id="paint9_linear_6897_19980" x1="60.0765" y1="30.5239" x2="60.0765" y2="88.532" gradientUnits="userSpaceOnUse">
<stop stop-color="#33E6BF"/>
<stop offset="1" stop-color="#0439C7"/>
</linearGradient>
<linearGradient id="paint10_linear_6897_19980" x1="60.0765" y1="30.5239" x2="60.0765" y2="88.532" gradientUnits="userSpaceOnUse">
<stop stop-color="#33E6BF"/>
<stop offset="1" stop-color="#0439C7"/>
</linearGradient>
<linearGradient id="paint11_linear_6897_19980" x1="60.0765" y1="30.5239" x2="60.0765" y2="88.532" gradientUnits="userSpaceOnUse">
<stop stop-color="#33E6BF"/>
<stop offset="1" stop-color="#0439C7"/>
</linearGradient>
</defs>
</svg>
