<svg width="167" height="167" viewBox="0 0 167 167" fill="none" xmlns="http://www.w3.org/2000/svg">
<rect width="167" height="167" rx="83.5" fill="#061B3A"/>
<path d="M81.9486 91.3418L42.9204 113.932L37.1863 108.198L71.3998 85.2084L81.9486 91.3418Z" fill="url(#paint0_linear_6897_20010)"/>
<path d="M82.8307 92.8697L43.7529 115.374L45.8517 123.207L82.868 105.072L82.8307 92.8697Z" fill="url(#paint1_linear_6897_20010)"/>
<path d="M84.3821 92.8697L123.46 115.374L121.361 123.207L84.3449 105.072L84.3821 92.8697Z" fill="url(#paint2_linear_6897_20010)"/>
<path d="M85.2643 91.3417L124.292 113.932L130.027 108.198L95.8131 85.2084L85.2643 91.3417Z" fill="url(#paint3_linear_6897_20010)"/>
<path d="M84.3822 89.6724L84.3325 44.5779L92.1654 42.479L94.9682 83.6036L84.3822 89.6724Z" fill="url(#paint4_linear_6897_20010)"/>
<path d="M82.6179 89.6724L82.6675 44.5779L74.8346 42.479L72.0319 83.6036L82.6179 89.6724Z" fill="url(#paint5_linear_6897_20010)"/>
<path d="M81.9486 91.3418L42.9204 113.932L37.1863 108.198L71.3998 85.2084L81.9486 91.3418Z" stroke="url(#paint6_linear_6897_20010)" stroke-width="0.163086"/>
<path d="M82.8307 92.8697L43.7529 115.374L45.8517 123.207L82.868 105.072L82.8307 92.8697Z" stroke="url(#paint7_linear_6897_20010)" stroke-width="0.163086"/>
<path d="M84.3821 92.8697L123.46 115.374L121.361 123.207L84.3449 105.072L84.3821 92.8697Z" stroke="url(#paint8_linear_6897_20010)" stroke-width="0.163086"/>
<path d="M85.2643 91.3417L124.292 113.932L130.027 108.198L95.8131 85.2084L85.2643 91.3417Z" stroke="url(#paint9_linear_6897_20010)" stroke-width="0.163086"/>
<path d="M84.3822 89.6724L84.3325 44.5779L92.1654 42.479L94.9682 83.6036L84.3822 89.6724Z" stroke="url(#paint10_linear_6897_20010)" stroke-width="0.163086"/>
<path d="M82.6179 89.6724L82.6675 44.5779L74.8346 42.479L72.0319 83.6036L82.6179 89.6724Z" stroke="url(#paint11_linear_6897_20010)" stroke-width="0.163086"/>
<defs>
<linearGradient id="paint0_linear_6897_20010" x1="83.6064" y1="42.479" x2="83.6064" y2="123.207" gradientUnits="userSpaceOnUse">
<stop stop-color="#33E6BF"/>
<stop offset="1" stop-color="#0439C7"/>
</linearGradient>
<linearGradient id="paint1_linear_6897_20010" x1="83.6064" y1="42.479" x2="83.6064" y2="123.207" gradientUnits="userSpaceOnUse">
<stop stop-color="#33E6BF"/>
<stop offset="1" stop-color="#0439C7"/>
</linearGradient>
<linearGradient id="paint2_linear_6897_20010" x1="83.6064" y1="42.479" x2="83.6064" y2="123.207" gradientUnits="userSpaceOnUse">
<stop stop-color="#33E6BF"/>
<stop offset="1" stop-color="#0439C7"/>
</linearGradient>
<linearGradient id="paint3_linear_6897_20010" x1="83.6064" y1="42.479" x2="83.6064" y2="123.207" gradientUnits="userSpaceOnUse">
<stop stop-color="#33E6BF"/>
<stop offset="1" stop-color="#0439C7"/>
</linearGradient>
<linearGradient id="paint4_linear_6897_20010" x1="83.6064" y1="42.479" x2="83.6064" y2="123.207" gradientUnits="userSpaceOnUse">
<stop stop-color="#33E6BF"/>
<stop offset="1" stop-color="#0439C7"/>
</linearGradient>
<linearGradient id="paint5_linear_6897_20010" x1="83.6064" y1="42.479" x2="83.6064" y2="123.207" gradientUnits="userSpaceOnUse">
<stop stop-color="#33E6BF"/>
<stop offset="1" stop-color="#0439C7"/>
</linearGradient>
<linearGradient id="paint6_linear_6897_20010" x1="83.6064" y1="42.479" x2="83.6064" y2="123.207" gradientUnits="userSpaceOnUse">
<stop stop-color="#33E6BF"/>
<stop offset="1" stop-color="#0439C7"/>
</linearGradient>
<linearGradient id="paint7_linear_6897_20010" x1="83.6064" y1="42.479" x2="83.6064" y2="123.207" gradientUnits="userSpaceOnUse">
<stop stop-color="#33E6BF"/>
<stop offset="1" stop-color="#0439C7"/>
</linearGradient>
<linearGradient id="paint8_linear_6897_20010" x1="83.6064" y1="42.479" x2="83.6064" y2="123.207" gradientUnits="userSpaceOnUse">
<stop stop-color="#33E6BF"/>
<stop offset="1" stop-color="#0439C7"/>
</linearGradient>
<linearGradient id="paint9_linear_6897_20010" x1="83.6064" y1="42.479" x2="83.6064" y2="123.207" gradientUnits="userSpaceOnUse">
<stop stop-color="#33E6BF"/>
<stop offset="1" stop-color="#0439C7"/>
</linearGradient>
<linearGradient id="paint10_linear_6897_20010" x1="83.6064" y1="42.479" x2="83.6064" y2="123.207" gradientUnits="userSpaceOnUse">
<stop stop-color="#33E6BF"/>
<stop offset="1" stop-color="#0439C7"/>
</linearGradient>
<linearGradient id="paint11_linear_6897_20010" x1="83.6064" y1="42.479" x2="83.6064" y2="123.207" gradientUnits="userSpaceOnUse">
<stop stop-color="#33E6BF"/>
<stop offset="1" stop-color="#0439C7"/>
</linearGradient>
</defs>
</svg>
