<svg width="120" height="120" viewBox="0 0 120 120" fill="none" xmlns="http://www.w3.org/2000/svg">
<rect width="120" height="120" fill="#061B3A"/>
<path d="M58.8852 65.6351L30.841 81.8677L26.7207 77.7474L51.3053 61.2279L58.8852 65.6351Z" fill="url(#paint0_linear_1905_9958)"/>
<path d="M59.5191 66.7331L31.4392 82.9038L32.9473 88.5322L59.5459 75.5011L59.5191 66.7331Z" fill="url(#paint1_linear_1905_9958)"/>
<path d="M60.6339 66.733L88.7138 82.9037L87.2057 88.5322L60.6071 75.501L60.6339 66.733Z" fill="url(#paint2_linear_1905_9958)"/>
<path d="M61.2678 65.6351L89.312 81.8676L93.4323 77.7474L68.8477 61.2279L61.2678 65.6351Z" fill="url(#paint3_linear_1905_9958)"/>
<path d="M60.6339 64.4356L60.5982 32.0323L66.2267 30.5242L68.2407 60.0748L60.6339 64.4356Z" fill="url(#paint4_linear_1905_9958)"/>
<path d="M59.3662 64.4356L59.4019 32.0323L53.7734 30.5242L51.7594 60.0748L59.3662 64.4356Z" fill="url(#paint5_linear_1905_9958)"/>
<path d="M58.8852 65.6351L30.841 81.8677L26.7207 77.7474L51.3053 61.2279L58.8852 65.6351Z" stroke="url(#paint6_linear_1905_9958)"/>
<path d="M59.5191 66.7331L31.4392 82.9038L32.9473 88.5322L59.5459 75.5011L59.5191 66.7331Z" stroke="url(#paint7_linear_1905_9958)"/>
<path d="M60.6339 66.733L88.7138 82.9037L87.2057 88.5322L60.6071 75.501L60.6339 66.733Z" stroke="url(#paint8_linear_1905_9958)"/>
<path d="M61.2678 65.6351L89.312 81.8676L93.4323 77.7474L68.8477 61.2279L61.2678 65.6351Z" stroke="url(#paint9_linear_1905_9958)"/>
<path d="M60.6339 64.4356L60.5982 32.0323L66.2267 30.5242L68.2407 60.0748L60.6339 64.4356Z" stroke="url(#paint10_linear_1905_9958)"/>
<path d="M59.3662 64.4356L59.4019 32.0323L53.7734 30.5242L51.7594 60.0748L59.3662 64.4356Z" stroke="url(#paint11_linear_1905_9958)"/>
<defs>
<linearGradient id="paint0_linear_1905_9958" x1="60.0765" y1="30.5242" x2="60.0765" y2="88.5322" gradientUnits="userSpaceOnUse">
<stop stop-color="#33E6BF"/>
<stop offset="1" stop-color="#0439C7"/>
</linearGradient>
<linearGradient id="paint1_linear_1905_9958" x1="60.0765" y1="30.5242" x2="60.0765" y2="88.5322" gradientUnits="userSpaceOnUse">
<stop stop-color="#33E6BF"/>
<stop offset="1" stop-color="#0439C7"/>
</linearGradient>
<linearGradient id="paint2_linear_1905_9958" x1="60.0765" y1="30.5242" x2="60.0765" y2="88.5322" gradientUnits="userSpaceOnUse">
<stop stop-color="#33E6BF"/>
<stop offset="1" stop-color="#0439C7"/>
</linearGradient>
<linearGradient id="paint3_linear_1905_9958" x1="60.0765" y1="30.5242" x2="60.0765" y2="88.5322" gradientUnits="userSpaceOnUse">
<stop stop-color="#33E6BF"/>
<stop offset="1" stop-color="#0439C7"/>
</linearGradient>
<linearGradient id="paint4_linear_1905_9958" x1="60.0765" y1="30.5242" x2="60.0765" y2="88.5322" gradientUnits="userSpaceOnUse">
<stop stop-color="#33E6BF"/>
<stop offset="1" stop-color="#0439C7"/>
</linearGradient>
<linearGradient id="paint5_linear_1905_9958" x1="60.0765" y1="30.5242" x2="60.0765" y2="88.5322" gradientUnits="userSpaceOnUse">
<stop stop-color="#33E6BF"/>
<stop offset="1" stop-color="#0439C7"/>
</linearGradient>
<linearGradient id="paint6_linear_1905_9958" x1="60.0765" y1="30.5242" x2="60.0765" y2="88.5322" gradientUnits="userSpaceOnUse">
<stop stop-color="#33E6BF"/>
<stop offset="1" stop-color="#0439C7"/>
</linearGradient>
<linearGradient id="paint7_linear_1905_9958" x1="60.0765" y1="30.5242" x2="60.0765" y2="88.5322" gradientUnits="userSpaceOnUse">
<stop stop-color="#33E6BF"/>
<stop offset="1" stop-color="#0439C7"/>
</linearGradient>
<linearGradient id="paint8_linear_1905_9958" x1="60.0765" y1="30.5242" x2="60.0765" y2="88.5322" gradientUnits="userSpaceOnUse">
<stop stop-color="#33E6BF"/>
<stop offset="1" stop-color="#0439C7"/>
</linearGradient>
<linearGradient id="paint9_linear_1905_9958" x1="60.0765" y1="30.5242" x2="60.0765" y2="88.5322" gradientUnits="userSpaceOnUse">
<stop stop-color="#33E6BF"/>
<stop offset="1" stop-color="#0439C7"/>
</linearGradient>
<linearGradient id="paint10_linear_1905_9958" x1="60.0765" y1="30.5242" x2="60.0765" y2="88.5322" gradientUnits="userSpaceOnUse">
<stop stop-color="#33E6BF"/>
<stop offset="1" stop-color="#0439C7"/>
</linearGradient>
<linearGradient id="paint11_linear_1905_9958" x1="60.0765" y1="30.5242" x2="60.0765" y2="88.5322" gradientUnits="userSpaceOnUse">
<stop stop-color="#33E6BF"/>
<stop offset="1" stop-color="#0439C7"/>
</linearGradient>
</defs>
</svg>
