<svg width="512" height="512" viewBox="0 0 512 512" fill="none" xmlns="http://www.w3.org/2000/svg">
<rect width="512" height="512" fill="#061B3A"/>
<path d="M251.244 280.043L131.588 349.301L114.008 331.722L218.902 261.239L251.244 280.043Z" fill="url(#paint0_linear_1905_9970)"/>
<path d="M253.948 284.727L134.141 353.722L140.575 377.737L254.062 322.137L253.948 284.727Z" fill="url(#paint1_linear_1905_9970)"/>
<path d="M258.705 284.727L378.512 353.722L372.077 377.737L258.59 322.137L258.705 284.727Z" fill="url(#paint2_linear_1905_9970)"/>
<path d="M261.409 280.042L381.064 349.301L398.644 331.721L293.75 261.238L261.409 280.042Z" fill="url(#paint3_linear_1905_9970)"/>
<path d="M258.705 274.925L258.552 136.671L282.567 130.236L291.16 256.318L258.705 274.925Z" fill="url(#paint4_linear_1905_9970)"/>
<path d="M253.296 274.925L253.448 136.671L229.433 130.236L220.84 256.318L253.296 274.925Z" fill="url(#paint5_linear_1905_9970)"/>
<path d="M251.244 280.043L131.588 349.301L114.008 331.722L218.902 261.239L251.244 280.043Z" stroke="url(#paint6_linear_1905_9970)"/>
<path d="M253.948 284.727L134.141 353.722L140.575 377.737L254.062 322.137L253.948 284.727Z" stroke="url(#paint7_linear_1905_9970)"/>
<path d="M258.705 284.727L378.512 353.722L372.077 377.737L258.59 322.137L258.705 284.727Z" stroke="url(#paint8_linear_1905_9970)"/>
<path d="M261.409 280.042L381.064 349.301L398.644 331.721L293.75 261.238L261.409 280.042Z" stroke="url(#paint9_linear_1905_9970)"/>
<path d="M258.705 274.925L258.552 136.671L282.567 130.236L291.16 256.318L258.705 274.925Z" stroke="url(#paint10_linear_1905_9970)"/>
<path d="M253.296 274.925L253.448 136.671L229.433 130.236L220.84 256.318L253.296 274.925Z" stroke="url(#paint11_linear_1905_9970)"/>
<defs>
<linearGradient id="paint0_linear_1905_9970" x1="256.326" y1="130.236" x2="256.326" y2="377.737" gradientUnits="userSpaceOnUse">
<stop stop-color="#33E6BF"/>
<stop offset="1" stop-color="#0439C7"/>
</linearGradient>
<linearGradient id="paint1_linear_1905_9970" x1="256.326" y1="130.236" x2="256.326" y2="377.737" gradientUnits="userSpaceOnUse">
<stop stop-color="#33E6BF"/>
<stop offset="1" stop-color="#0439C7"/>
</linearGradient>
<linearGradient id="paint2_linear_1905_9970" x1="256.326" y1="130.236" x2="256.326" y2="377.737" gradientUnits="userSpaceOnUse">
<stop stop-color="#33E6BF"/>
<stop offset="1" stop-color="#0439C7"/>
</linearGradient>
<linearGradient id="paint3_linear_1905_9970" x1="256.326" y1="130.236" x2="256.326" y2="377.737" gradientUnits="userSpaceOnUse">
<stop stop-color="#33E6BF"/>
<stop offset="1" stop-color="#0439C7"/>
</linearGradient>
<linearGradient id="paint4_linear_1905_9970" x1="256.326" y1="130.236" x2="256.326" y2="377.737" gradientUnits="userSpaceOnUse">
<stop stop-color="#33E6BF"/>
<stop offset="1" stop-color="#0439C7"/>
</linearGradient>
<linearGradient id="paint5_linear_1905_9970" x1="256.326" y1="130.236" x2="256.326" y2="377.737" gradientUnits="userSpaceOnUse">
<stop stop-color="#33E6BF"/>
<stop offset="1" stop-color="#0439C7"/>
</linearGradient>
<linearGradient id="paint6_linear_1905_9970" x1="256.326" y1="130.236" x2="256.326" y2="377.737" gradientUnits="userSpaceOnUse">
<stop stop-color="#33E6BF"/>
<stop offset="1" stop-color="#0439C7"/>
</linearGradient>
<linearGradient id="paint7_linear_1905_9970" x1="256.326" y1="130.236" x2="256.326" y2="377.737" gradientUnits="userSpaceOnUse">
<stop stop-color="#33E6BF"/>
<stop offset="1" stop-color="#0439C7"/>
</linearGradient>
<linearGradient id="paint8_linear_1905_9970" x1="256.326" y1="130.236" x2="256.326" y2="377.737" gradientUnits="userSpaceOnUse">
<stop stop-color="#33E6BF"/>
<stop offset="1" stop-color="#0439C7"/>
</linearGradient>
<linearGradient id="paint9_linear_1905_9970" x1="256.326" y1="130.236" x2="256.326" y2="377.737" gradientUnits="userSpaceOnUse">
<stop stop-color="#33E6BF"/>
<stop offset="1" stop-color="#0439C7"/>
</linearGradient>
<linearGradient id="paint10_linear_1905_9970" x1="256.326" y1="130.236" x2="256.326" y2="377.737" gradientUnits="userSpaceOnUse">
<stop stop-color="#33E6BF"/>
<stop offset="1" stop-color="#0439C7"/>
</linearGradient>
<linearGradient id="paint11_linear_1905_9970" x1="256.326" y1="130.236" x2="256.326" y2="377.737" gradientUnits="userSpaceOnUse">
<stop stop-color="#33E6BF"/>
<stop offset="1" stop-color="#0439C7"/>
</linearGradient>
</defs>
</svg>
