<svg width="58" height="58" viewBox="0 0 58 58" fill="none" xmlns="http://www.w3.org/2000/svg">
<rect width="58" height="58" fill="#061B3A"/>
<path d="M28.4612 31.7237L14.9065 39.5694L12.915 37.578L24.7976 29.5936L28.4612 31.7237Z" fill="url(#paint0_linear_1905_9966)"/>
<path d="M28.7676 32.2544L15.1957 40.0702L15.9246 42.7906L28.7805 36.4923L28.7676 32.2544Z" fill="url(#paint1_linear_1905_9966)"/>
<path d="M29.3064 32.2544L42.8784 40.0702L42.1494 42.7906L29.2935 36.4922L29.3064 32.2544Z" fill="url(#paint2_linear_1905_9966)"/>
<path d="M29.6128 31.7237L43.1675 39.5694L45.159 37.578L33.2764 29.5936L29.6128 31.7237Z" fill="url(#paint3_linear_1905_9966)"/>
<path d="M29.3064 31.1439L29.2892 15.4824L32.0096 14.7534L32.983 29.0362L29.3064 31.1439Z" fill="url(#paint4_linear_1905_9966)"/>
<path d="M28.6937 31.1439L28.7109 15.4824L25.9905 14.7534L25.0171 29.0362L28.6937 31.1439Z" fill="url(#paint5_linear_1905_9966)"/>
<path d="M28.4612 31.7237L14.9065 39.5694L12.915 37.578L24.7976 29.5936L28.4612 31.7237Z" stroke="url(#paint6_linear_1905_9966)"/>
<path d="M28.7676 32.2544L15.1957 40.0702L15.9246 42.7906L28.7805 36.4923L28.7676 32.2544Z" stroke="url(#paint7_linear_1905_9966)"/>
<path d="M29.3064 32.2544L42.8784 40.0702L42.1494 42.7906L29.2935 36.4922L29.3064 32.2544Z" stroke="url(#paint8_linear_1905_9966)"/>
<path d="M29.6128 31.7237L43.1675 39.5694L45.159 37.578L33.2764 29.5936L29.6128 31.7237Z" stroke="url(#paint9_linear_1905_9966)"/>
<path d="M29.3064 31.1439L29.2892 15.4824L32.0096 14.7534L32.983 29.0362L29.3064 31.1439Z" stroke="url(#paint10_linear_1905_9966)"/>
<path d="M28.6937 31.1439L28.7109 15.4824L25.9905 14.7534L25.0171 29.0362L28.6937 31.1439Z" stroke="url(#paint11_linear_1905_9966)"/>
<defs>
<linearGradient id="paint0_linear_1905_9966" x1="29.037" y1="14.7534" x2="29.037" y2="42.7906" gradientUnits="userSpaceOnUse">
<stop stop-color="#33E6BF"/>
<stop offset="1" stop-color="#0439C7"/>
</linearGradient>
<linearGradient id="paint1_linear_1905_9966" x1="29.037" y1="14.7534" x2="29.037" y2="42.7906" gradientUnits="userSpaceOnUse">
<stop stop-color="#33E6BF"/>
<stop offset="1" stop-color="#0439C7"/>
</linearGradient>
<linearGradient id="paint2_linear_1905_9966" x1="29.037" y1="14.7534" x2="29.037" y2="42.7906" gradientUnits="userSpaceOnUse">
<stop stop-color="#33E6BF"/>
<stop offset="1" stop-color="#0439C7"/>
</linearGradient>
<linearGradient id="paint3_linear_1905_9966" x1="29.037" y1="14.7534" x2="29.037" y2="42.7906" gradientUnits="userSpaceOnUse">
<stop stop-color="#33E6BF"/>
<stop offset="1" stop-color="#0439C7"/>
</linearGradient>
<linearGradient id="paint4_linear_1905_9966" x1="29.037" y1="14.7534" x2="29.037" y2="42.7906" gradientUnits="userSpaceOnUse">
<stop stop-color="#33E6BF"/>
<stop offset="1" stop-color="#0439C7"/>
</linearGradient>
<linearGradient id="paint5_linear_1905_9966" x1="29.037" y1="14.7534" x2="29.037" y2="42.7906" gradientUnits="userSpaceOnUse">
<stop stop-color="#33E6BF"/>
<stop offset="1" stop-color="#0439C7"/>
</linearGradient>
<linearGradient id="paint6_linear_1905_9966" x1="29.037" y1="14.7534" x2="29.037" y2="42.7906" gradientUnits="userSpaceOnUse">
<stop stop-color="#33E6BF"/>
<stop offset="1" stop-color="#0439C7"/>
</linearGradient>
<linearGradient id="paint7_linear_1905_9966" x1="29.037" y1="14.7534" x2="29.037" y2="42.7906" gradientUnits="userSpaceOnUse">
<stop stop-color="#33E6BF"/>
<stop offset="1" stop-color="#0439C7"/>
</linearGradient>
<linearGradient id="paint8_linear_1905_9966" x1="29.037" y1="14.7534" x2="29.037" y2="42.7906" gradientUnits="userSpaceOnUse">
<stop stop-color="#33E6BF"/>
<stop offset="1" stop-color="#0439C7"/>
</linearGradient>
<linearGradient id="paint9_linear_1905_9966" x1="29.037" y1="14.7534" x2="29.037" y2="42.7906" gradientUnits="userSpaceOnUse">
<stop stop-color="#33E6BF"/>
<stop offset="1" stop-color="#0439C7"/>
</linearGradient>
<linearGradient id="paint10_linear_1905_9966" x1="29.037" y1="14.7534" x2="29.037" y2="42.7906" gradientUnits="userSpaceOnUse">
<stop stop-color="#33E6BF"/>
<stop offset="1" stop-color="#0439C7"/>
</linearGradient>
<linearGradient id="paint11_linear_1905_9966" x1="29.037" y1="14.7534" x2="29.037" y2="42.7906" gradientUnits="userSpaceOnUse">
<stop stop-color="#33E6BF"/>
<stop offset="1" stop-color="#0439C7"/>
</linearGradient>
</defs>
</svg>
