<svg width="481" height="346" viewBox="0 0 481 346" fill="none" xmlns="http://www.w3.org/2000/svg">
<path d="M237.734 114.007L155.572 161.564L143.5 149.493L215.527 101.095L237.734 114.007Z" fill="url(#paint0_linear_17311_11991)"/>
<path d="M239.591 117.223L157.324 164.6L161.742 181.089L239.669 142.912L239.591 117.223Z" fill="url(#paint1_linear_17311_11991)"/>
<path d="M242.857 117.223L325.124 164.599L320.706 181.089L242.779 142.911L242.857 117.223Z" fill="url(#paint2_linear_17311_11991)"/>
<path d="M244.714 114.007L326.876 161.564L338.948 149.493L266.921 101.095L244.714 114.007Z" fill="url(#paint3_linear_17311_11991)"/>
<path d="M242.857 110.492L242.753 15.5592L259.242 11.1406L265.143 97.7163L242.857 110.492Z" fill="url(#paint4_linear_17311_11991)"/>
<path d="M239.143 110.492L239.247 15.5592L222.758 11.1406L216.857 97.7163L239.143 110.492Z" fill="url(#paint5_linear_17311_11991)"/>
<path d="M237.734 114.007L155.572 161.564L143.5 149.493L215.527 101.095L237.734 114.007Z" stroke="url(#paint6_linear_17311_11991)" stroke-width="0.663053"/>
<path d="M239.591 117.223L157.324 164.6L161.742 181.089L239.669 142.912L239.591 117.223Z" stroke="url(#paint7_linear_17311_11991)" stroke-width="0.663053"/>
<path d="M242.857 117.223L325.124 164.599L320.706 181.089L242.779 142.911L242.857 117.223Z" stroke="url(#paint8_linear_17311_11991)" stroke-width="0.663053"/>
<path d="M244.714 114.007L326.876 161.564L338.948 149.493L266.921 101.095L244.714 114.007Z" stroke="url(#paint9_linear_17311_11991)" stroke-width="0.663053"/>
<path d="M242.857 110.492L242.753 15.5592L259.242 11.1406L265.143 97.7163L242.857 110.492Z" stroke="url(#paint10_linear_17311_11991)" stroke-width="0.663053"/>
<path d="M239.143 110.492L239.247 15.5592L222.758 11.1406L216.857 97.7163L239.143 110.492Z" stroke="url(#paint11_linear_17311_11991)" stroke-width="0.663053"/>
<path d="M39.528 320L0.36 230.4H18.408L53.352 311.424H42.984L78.312 230.4H94.952L55.912 320H39.528ZM126.733 320.896C120.93 320.896 115.81 319.829 111.373 317.696C106.936 315.477 103.48 312.149 101.005 307.712C98.5303 303.189 97.293 297.515 97.293 290.688V251.648H113.293V288.512C113.293 294.656 114.658 299.264 117.389 302.336C120.205 305.323 124.173 306.816 129.293 306.816C133.048 306.816 136.29 306.048 139.021 304.512C141.837 302.976 144.013 300.672 145.549 297.6C147.17 294.528 147.981 290.731 147.981 286.208V251.648H163.981V320H148.749V301.568L151.437 307.2C149.133 311.637 145.762 315.051 141.325 317.44C136.888 319.744 132.024 320.896 126.733 320.896ZM182.114 320V225.024H198.114V320H182.114ZM245.401 320.896C237.892 320.896 232.089 318.976 227.993 315.136C223.897 311.211 221.849 305.451 221.849 297.856V236.544H237.849V297.472C237.849 300.715 238.66 303.232 240.281 305.024C241.988 306.816 244.334 307.712 247.321 307.712C250.905 307.712 253.892 306.773 256.281 304.896L260.761 316.288C258.884 317.824 256.58 318.976 253.849 319.744C251.118 320.512 248.302 320.896 245.401 320.896ZM210.585 264.96V252.16H256.153V264.96H210.585ZM271.107 320V251.648H287.107V320H271.107ZM279.171 240.384C276.184 240.384 273.71 239.445 271.747 237.568C269.87 235.691 268.931 233.429 268.931 230.784C268.931 228.053 269.87 225.792 271.747 224C273.71 222.123 276.184 221.184 279.171 221.184C282.158 221.184 284.59 222.08 286.467 223.872C288.43 225.579 289.411 227.755 289.411 230.4C289.411 233.216 288.472 235.605 286.595 237.568C284.718 239.445 282.243 240.384 279.171 240.384ZM326.411 320.896C320.694 320.896 315.19 320.171 309.899 318.72C304.694 317.184 300.555 315.349 297.483 313.216L303.627 301.056C306.699 303.019 310.368 304.64 314.635 305.92C318.902 307.2 323.168 307.84 327.435 307.84C332.47 307.84 336.096 307.157 338.315 305.792C340.619 304.427 341.771 302.592 341.771 300.288C341.771 298.411 341.003 297.003 339.467 296.064C337.931 295.04 335.926 294.272 333.451 293.76C330.976 293.248 328.203 292.779 325.131 292.352C322.144 291.925 319.115 291.371 316.043 290.688C313.056 289.92 310.326 288.853 307.851 287.488C305.376 286.037 303.371 284.117 301.835 281.728C300.299 279.339 299.531 276.181 299.531 272.256C299.531 267.904 300.768 264.149 303.243 260.992C305.718 257.749 309.174 255.275 313.611 253.568C318.134 251.776 323.467 250.88 329.611 250.88C334.219 250.88 338.87 251.392 343.563 252.416C348.256 253.44 352.139 254.891 355.211 256.768L349.067 268.928C345.824 266.965 342.539 265.643 339.211 264.96C335.968 264.192 332.726 263.808 329.483 263.808C324.619 263.808 320.992 264.533 318.603 265.984C316.299 267.435 315.147 269.269 315.147 271.488C315.147 273.536 315.915 275.072 317.451 276.096C318.987 277.12 320.992 277.931 323.467 278.528C325.942 279.125 328.672 279.637 331.659 280.064C334.731 280.405 337.76 280.96 340.747 281.728C343.734 282.496 346.464 283.563 348.939 284.928C351.499 286.208 353.547 288.043 355.083 290.432C356.619 292.821 357.387 295.936 357.387 299.776C357.387 304.043 356.107 307.755 353.547 310.912C351.072 314.069 347.531 316.544 342.923 318.336C338.315 320.043 332.811 320.896 326.411 320.896ZM368.35 320V251.648H384.35V320H368.35ZM376.414 240.384C373.427 240.384 370.953 239.445 368.99 237.568C367.113 235.691 366.174 233.429 366.174 230.784C366.174 228.053 367.113 225.792 368.99 224C370.953 222.123 373.427 221.184 376.414 221.184C379.401 221.184 381.833 222.08 383.71 223.872C385.673 225.579 386.654 227.755 386.654 230.4C386.654 233.216 385.715 235.605 383.838 237.568C381.961 239.445 379.486 240.384 376.414 240.384ZM433.51 345.728C427.195 345.728 421.009 344.875 414.95 343.168C408.977 341.547 404.07 339.157 400.23 336L407.398 323.968C410.385 326.443 414.139 328.405 418.662 329.856C423.27 331.392 427.921 332.16 432.614 332.16C440.123 332.16 445.627 330.411 449.126 326.912C452.625 323.499 454.374 318.336 454.374 311.424V299.264L455.654 283.776L455.142 268.288V251.648H470.374V309.632C470.374 322.005 467.217 331.093 460.902 336.896C454.587 342.784 445.457 345.728 433.51 345.728ZM431.462 316.928C424.977 316.928 419.089 315.563 413.798 312.832C408.593 310.016 404.454 306.133 401.382 301.184C398.395 296.235 396.902 290.432 396.902 283.776C396.902 277.205 398.395 271.445 401.382 266.496C404.454 261.547 408.593 257.707 413.798 254.976C419.089 252.245 424.977 250.88 431.462 250.88C437.265 250.88 442.47 252.032 447.078 254.336C451.686 256.64 455.355 260.224 458.086 265.088C460.902 269.952 462.31 276.181 462.31 283.776C462.31 291.371 460.902 297.643 458.086 302.592C455.355 307.456 451.686 311.083 447.078 313.472C442.47 315.776 437.265 316.928 431.462 316.928ZM433.894 303.36C437.905 303.36 441.489 302.549 444.646 300.928C447.803 299.221 450.235 296.917 451.942 294.016C453.734 291.029 454.63 287.616 454.63 283.776C454.63 279.936 453.734 276.565 451.942 273.664C450.235 270.677 447.803 268.416 444.646 266.88C441.489 265.259 437.905 264.448 433.894 264.448C429.883 264.448 426.257 265.259 423.014 266.88C419.857 268.416 417.382 270.677 415.59 273.664C413.883 276.565 413.03 279.936 413.03 283.776C413.03 287.616 413.883 291.029 415.59 294.016C417.382 296.917 419.857 299.221 423.014 300.928C426.257 302.549 429.883 303.36 433.894 303.36Z" fill="white"/>
<defs>
<linearGradient id="paint0_linear_17311_11991" x1="241.224" y1="11.1406" x2="241.224" y2="181.089" gradientUnits="userSpaceOnUse">
<stop stop-color="#33E6BF"/>
<stop offset="1" stop-color="#0439C7"/>
</linearGradient>
<linearGradient id="paint1_linear_17311_11991" x1="241.224" y1="11.1406" x2="241.224" y2="181.089" gradientUnits="userSpaceOnUse">
<stop stop-color="#33E6BF"/>
<stop offset="1" stop-color="#0439C7"/>
</linearGradient>
<linearGradient id="paint2_linear_17311_11991" x1="241.224" y1="11.1406" x2="241.224" y2="181.089" gradientUnits="userSpaceOnUse">
<stop stop-color="#33E6BF"/>
<stop offset="1" stop-color="#0439C7"/>
</linearGradient>
<linearGradient id="paint3_linear_17311_11991" x1="241.224" y1="11.1406" x2="241.224" y2="181.089" gradientUnits="userSpaceOnUse">
<stop stop-color="#33E6BF"/>
<stop offset="1" stop-color="#0439C7"/>
</linearGradient>
<linearGradient id="paint4_linear_17311_11991" x1="241.224" y1="11.1406" x2="241.224" y2="181.089" gradientUnits="userSpaceOnUse">
<stop stop-color="#33E6BF"/>
<stop offset="1" stop-color="#0439C7"/>
</linearGradient>
<linearGradient id="paint5_linear_17311_11991" x1="241.224" y1="11.1406" x2="241.224" y2="181.089" gradientUnits="userSpaceOnUse">
<stop stop-color="#33E6BF"/>
<stop offset="1" stop-color="#0439C7"/>
</linearGradient>
<linearGradient id="paint6_linear_17311_11991" x1="241.224" y1="11.1406" x2="241.224" y2="181.089" gradientUnits="userSpaceOnUse">
<stop stop-color="#33E6BF"/>
<stop offset="1" stop-color="#0439C7"/>
</linearGradient>
<linearGradient id="paint7_linear_17311_11991" x1="241.224" y1="11.1406" x2="241.224" y2="181.089" gradientUnits="userSpaceOnUse">
<stop stop-color="#33E6BF"/>
<stop offset="1" stop-color="#0439C7"/>
</linearGradient>
<linearGradient id="paint8_linear_17311_11991" x1="241.224" y1="11.1406" x2="241.224" y2="181.089" gradientUnits="userSpaceOnUse">
<stop stop-color="#33E6BF"/>
<stop offset="1" stop-color="#0439C7"/>
</linearGradient>
<linearGradient id="paint9_linear_17311_11991" x1="241.224" y1="11.1406" x2="241.224" y2="181.089" gradientUnits="userSpaceOnUse">
<stop stop-color="#33E6BF"/>
<stop offset="1" stop-color="#0439C7"/>
</linearGradient>
<linearGradient id="paint10_linear_17311_11991" x1="241.224" y1="11.1406" x2="241.224" y2="181.089" gradientUnits="userSpaceOnUse">
<stop stop-color="#33E6BF"/>
<stop offset="1" stop-color="#0439C7"/>
</linearGradient>
<linearGradient id="paint11_linear_17311_11991" x1="241.224" y1="11.1406" x2="241.224" y2="181.089" gradientUnits="userSpaceOnUse">
<stop stop-color="#33E6BF"/>
<stop offset="1" stop-color="#0439C7"/>
</linearGradient>
</defs>
</svg>
