<svg width="2002" height="469" viewBox="0 0 2002 469" fill="none" xmlns="http://www.w3.org/2000/svg">
<path d="M228.61 274.166L31.0292 388.53L2 359.501L175.207 243.116L228.61 274.166Z" fill="url(#paint0_linear_17328_9785)"/>
<path d="M233.076 281.901L35.2436 395.829L45.8688 435.484L233.265 343.675L233.076 281.901Z" fill="url(#paint1_linear_17328_9785)"/>
<path d="M240.93 281.901L438.763 395.829L428.138 435.483L240.742 343.675L240.93 281.901Z" fill="url(#paint2_linear_17328_9785)"/>
<path d="M245.396 274.166L442.977 388.529L472.006 359.501L298.799 243.115L245.396 274.166Z" fill="url(#paint3_linear_17328_9785)"/>
<path d="M240.931 265.714L240.679 37.4225L280.333 26.7969L294.522 234.991L240.931 265.714Z" fill="url(#paint4_linear_17328_9785)"/>
<path d="M231.999 265.714L232.25 37.4225L192.596 26.7969L178.407 234.991L231.999 265.714Z" fill="url(#paint5_linear_17328_9785)"/>
<path d="M228.61 274.166L31.0292 388.53L2 359.501L175.207 243.116L228.61 274.166Z" stroke="url(#paint6_linear_17328_9785)" stroke-width="2.44754"/>
<path d="M233.076 281.901L35.2436 395.829L45.8688 435.484L233.265 343.675L233.076 281.901Z" stroke="url(#paint7_linear_17328_9785)" stroke-width="2.44754"/>
<path d="M240.93 281.901L438.763 395.829L428.138 435.483L240.742 343.675L240.93 281.901Z" stroke="url(#paint8_linear_17328_9785)" stroke-width="2.44754"/>
<path d="M245.396 274.166L442.977 388.529L472.006 359.501L298.799 243.115L245.396 274.166Z" stroke="url(#paint9_linear_17328_9785)" stroke-width="2.44754"/>
<path d="M240.931 265.714L240.679 37.4225L280.333 26.7969L294.522 234.991L240.931 265.714Z" stroke="url(#paint10_linear_17328_9785)" stroke-width="2.44754"/>
<path d="M231.999 265.714L232.25 37.4225L192.596 26.7969L178.407 234.991L231.999 265.714Z" stroke="url(#paint11_linear_17328_9785)" stroke-width="2.44754"/>
<path d="M693.477 345.417L574.561 73.3865H629.355L735.447 319.38H703.969L811.227 73.3865H861.747L743.22 345.417H693.477Z" fill="white"/>
<path d="M958.236 348.138C940.619 348.138 925.074 344.899 911.602 338.422C898.13 331.686 887.638 321.582 880.124 308.11C872.611 294.379 868.855 277.15 868.855 256.424V137.897H917.432V249.818C917.432 268.471 921.577 282.462 929.867 291.788C938.417 300.856 950.464 305.39 966.008 305.39C977.408 305.39 987.253 303.058 995.543 298.395C1004.09 293.731 1010.7 286.736 1015.36 277.41C1020.29 268.083 1022.75 256.554 1022.75 242.823V137.897H1071.32V345.417H1025.08V289.457L1033.24 306.556C1026.24 320.028 1016.01 330.391 1002.54 337.645C989.066 344.64 974.299 348.138 958.236 348.138Z" fill="white"/>
<path d="M1126.38 345.417V57.0647H1174.95V345.417H1126.38Z" fill="white"/>
<path d="M1318.52 348.138C1295.72 348.138 1278.1 342.308 1265.67 330.65C1253.23 318.732 1247.01 301.245 1247.01 278.187V92.0401H1295.59V277.021C1295.59 286.866 1298.05 294.509 1302.97 299.949C1308.16 305.39 1315.28 308.11 1324.35 308.11C1335.23 308.11 1344.3 305.26 1351.55 299.561L1365.15 334.147C1359.45 338.811 1352.46 342.308 1344.17 344.64C1335.88 346.972 1327.33 348.138 1318.52 348.138ZM1212.82 178.313V139.451H1351.16V178.313H1212.82Z" fill="white"/>
<path d="M1396.56 345.417V137.897H1445.14V345.417H1396.56ZM1421.05 103.699C1411.98 103.699 1404.47 100.849 1398.51 95.149C1392.81 89.4493 1389.96 82.5838 1389.96 74.5524C1389.96 66.2619 1392.81 59.3964 1398.51 53.9558C1404.47 48.2561 1411.98 45.4062 1421.05 45.4062C1430.11 45.4062 1437.5 48.1266 1443.2 53.5672C1449.16 58.7487 1452.14 65.3552 1452.14 73.3865C1452.14 81.9361 1449.29 89.1902 1443.59 95.149C1437.89 100.849 1430.37 103.699 1421.05 103.699Z" fill="white"/>
<path d="M1564.47 348.138C1547.11 348.138 1530.4 345.935 1514.34 341.531C1498.53 336.868 1485.97 331.298 1476.64 324.821L1495.3 287.902C1504.62 293.861 1515.76 298.783 1528.72 302.67C1541.67 306.556 1554.62 308.499 1567.58 308.499C1582.86 308.499 1593.88 306.426 1600.61 302.281C1607.61 298.136 1611.1 292.566 1611.1 285.57C1611.1 279.871 1608.77 275.596 1604.11 272.746C1599.45 269.637 1593.36 267.306 1585.84 265.751C1578.33 264.197 1569.91 262.772 1560.58 261.476C1551.52 260.181 1542.32 258.497 1532.99 256.424C1523.92 254.093 1515.63 250.854 1508.12 246.709C1500.61 242.305 1494.52 236.475 1489.86 229.221C1485.19 221.967 1482.86 212.381 1482.86 200.464C1482.86 187.251 1486.62 175.851 1494.13 166.266C1501.64 156.421 1512.14 148.907 1525.61 143.726C1539.34 138.285 1555.53 135.565 1574.19 135.565C1588.18 135.565 1602.3 137.119 1616.54 140.228C1630.79 143.337 1642.58 147.742 1651.91 153.441L1633.25 190.36C1623.41 184.401 1613.44 180.385 1603.33 178.313C1593.49 175.981 1583.64 174.815 1573.8 174.815C1559.03 174.815 1548.02 177.017 1540.76 181.422C1533.77 185.826 1530.27 191.396 1530.27 198.132C1530.27 204.35 1532.6 209.013 1537.27 212.122C1541.93 215.231 1548.02 217.692 1555.53 219.506C1563.04 221.319 1571.34 222.874 1580.4 224.169C1589.73 225.206 1598.93 226.89 1607.99 229.221C1617.06 231.553 1625.35 234.791 1632.87 238.937C1640.64 242.823 1646.86 248.393 1651.52 255.647C1656.18 262.901 1658.51 272.358 1658.51 284.016C1658.51 296.97 1654.63 308.24 1646.86 317.826C1639.34 327.411 1628.59 334.925 1614.6 340.365C1600.61 345.547 1583.9 348.138 1564.47 348.138Z" fill="white"/>
<path d="M1691.8 345.417V137.897H1740.38V345.417H1691.8ZM1716.28 103.699C1707.21 103.699 1699.7 100.849 1693.74 95.149C1688.04 89.4493 1685.19 82.5838 1685.19 74.5524C1685.19 66.2619 1688.04 59.3964 1693.74 53.9558C1699.7 48.2561 1707.21 45.4062 1716.28 45.4062C1725.35 45.4062 1732.73 48.1266 1738.43 53.5672C1744.39 58.7487 1747.37 65.3552 1747.37 73.3865C1747.37 81.9361 1744.52 89.1902 1738.82 95.149C1733.12 100.849 1725.61 103.699 1716.28 103.699Z" fill="white"/>
<path d="M1889.63 423.529C1870.46 423.529 1851.67 420.938 1833.28 415.757C1815.14 410.834 1800.25 403.58 1788.59 393.994L1810.35 357.464C1819.42 364.978 1830.82 370.936 1844.55 375.341C1858.54 380.004 1872.66 382.336 1886.91 382.336C1909.71 382.336 1926.42 377.025 1937.04 366.402C1947.66 356.039 1952.97 340.365 1952.97 319.38V282.462L1956.86 235.439L1955.3 188.417V137.897H2001.55V313.939C2001.55 351.506 1991.96 379.097 1972.79 396.714C1953.62 414.591 1925.9 423.529 1889.63 423.529ZM1883.41 336.09C1863.72 336.09 1845.84 331.945 1829.78 323.655C1813.98 315.105 1801.41 303.317 1792.09 288.291C1783.02 273.264 1778.48 255.647 1778.48 235.439C1778.48 215.49 1783.02 198.003 1792.09 182.976C1801.41 167.95 1813.98 156.291 1829.78 148.001C1845.84 139.71 1863.72 135.565 1883.41 135.565C1901.03 135.565 1916.83 139.063 1930.82 146.058C1944.81 153.053 1955.95 163.934 1964.24 178.701C1972.79 193.469 1977.07 212.381 1977.07 235.439C1977.07 258.497 1972.79 277.539 1964.24 292.566C1955.95 307.333 1944.81 318.344 1930.82 325.598C1916.83 332.593 1901.03 336.09 1883.41 336.09ZM1890.79 294.897C1902.97 294.897 1913.85 292.436 1923.44 287.514C1933.02 282.332 1940.41 275.337 1945.59 266.528C1951.03 257.461 1953.75 247.098 1953.75 235.439C1953.75 223.781 1951.03 213.547 1945.59 204.739C1940.41 195.671 1933.02 188.805 1923.44 184.142C1913.85 179.219 1902.97 176.758 1890.79 176.758C1878.62 176.758 1867.61 179.219 1857.76 184.142C1848.18 188.805 1840.66 195.671 1835.22 204.739C1830.04 213.547 1827.45 223.781 1827.45 235.439C1827.45 247.098 1830.04 257.461 1835.22 266.528C1840.66 275.337 1848.18 282.332 1857.76 287.514C1867.61 292.436 1878.62 294.897 1890.79 294.897Z" fill="white"/>
<defs>
<linearGradient id="paint0_linear_17328_9785" x1="237.003" y1="26.7969" x2="237.003" y2="435.484" gradientUnits="userSpaceOnUse">
<stop stop-color="#33E6BF"/>
<stop offset="1" stop-color="#0439C7"/>
</linearGradient>
<linearGradient id="paint1_linear_17328_9785" x1="237.003" y1="26.7969" x2="237.003" y2="435.484" gradientUnits="userSpaceOnUse">
<stop stop-color="#33E6BF"/>
<stop offset="1" stop-color="#0439C7"/>
</linearGradient>
<linearGradient id="paint2_linear_17328_9785" x1="237.003" y1="26.7969" x2="237.003" y2="435.484" gradientUnits="userSpaceOnUse">
<stop stop-color="#33E6BF"/>
<stop offset="1" stop-color="#0439C7"/>
</linearGradient>
<linearGradient id="paint3_linear_17328_9785" x1="237.003" y1="26.7969" x2="237.003" y2="435.484" gradientUnits="userSpaceOnUse">
<stop stop-color="#33E6BF"/>
<stop offset="1" stop-color="#0439C7"/>
</linearGradient>
<linearGradient id="paint4_linear_17328_9785" x1="237.003" y1="26.7969" x2="237.003" y2="435.484" gradientUnits="userSpaceOnUse">
<stop stop-color="#33E6BF"/>
<stop offset="1" stop-color="#0439C7"/>
</linearGradient>
<linearGradient id="paint5_linear_17328_9785" x1="237.003" y1="26.7969" x2="237.003" y2="435.484" gradientUnits="userSpaceOnUse">
<stop stop-color="#33E6BF"/>
<stop offset="1" stop-color="#0439C7"/>
</linearGradient>
<linearGradient id="paint6_linear_17328_9785" x1="237.003" y1="26.7969" x2="237.003" y2="435.484" gradientUnits="userSpaceOnUse">
<stop stop-color="#33E6BF"/>
<stop offset="1" stop-color="#0439C7"/>
</linearGradient>
<linearGradient id="paint7_linear_17328_9785" x1="237.003" y1="26.7969" x2="237.003" y2="435.484" gradientUnits="userSpaceOnUse">
<stop stop-color="#33E6BF"/>
<stop offset="1" stop-color="#0439C7"/>
</linearGradient>
<linearGradient id="paint8_linear_17328_9785" x1="237.003" y1="26.7969" x2="237.003" y2="435.484" gradientUnits="userSpaceOnUse">
<stop stop-color="#33E6BF"/>
<stop offset="1" stop-color="#0439C7"/>
</linearGradient>
<linearGradient id="paint9_linear_17328_9785" x1="237.003" y1="26.7969" x2="237.003" y2="435.484" gradientUnits="userSpaceOnUse">
<stop stop-color="#33E6BF"/>
<stop offset="1" stop-color="#0439C7"/>
</linearGradient>
<linearGradient id="paint10_linear_17328_9785" x1="237.003" y1="26.7969" x2="237.003" y2="435.484" gradientUnits="userSpaceOnUse">
<stop stop-color="#33E6BF"/>
<stop offset="1" stop-color="#0439C7"/>
</linearGradient>
<linearGradient id="paint11_linear_17328_9785" x1="237.003" y1="26.7969" x2="237.003" y2="435.484" gradientUnits="userSpaceOnUse">
<stop stop-color="#33E6BF"/>
<stop offset="1" stop-color="#0439C7"/>
</linearGradient>
</defs>
</svg>
